G75*
%MOIN*%
%OFA0B0*%
%FSLAX24Y24*%
%IPPOS*%
%LPD*%
%AMOC8*
5,1,8,0,0,1.08239X$1,22.5*
%
%ADD10R,0.0800X0.0800*%
%ADD11C,0.0160*%
%ADD12OC8,0.0520*%
%ADD13OC8,0.0600*%
%ADD14OC8,0.0630*%
%ADD15C,0.0400*%
D10*
X014860Y010340D03*
X015940Y010340D03*
X013900Y013020D03*
X015940Y013060D03*
X011700Y015340D03*
X010500Y015340D03*
D11*
X008442Y005042D02*
X008442Y003200D01*
X008442Y003814D02*
X009670Y005042D01*
X010591Y004428D02*
X011205Y004428D01*
X011511Y004121D01*
X011511Y003200D01*
X010591Y003200D01*
X010284Y003507D01*
X010591Y003814D01*
X011511Y003814D01*
X012125Y003200D02*
X012125Y004428D01*
X013046Y004428D01*
X013353Y004121D01*
X013353Y003200D01*
X013967Y003200D02*
X013967Y004428D01*
X014888Y004428D01*
X015195Y004121D01*
X015195Y003200D01*
X015809Y003507D02*
X016115Y003814D01*
X017036Y003814D01*
X017036Y004121D02*
X017036Y003200D01*
X016115Y003200D01*
X015809Y003507D01*
X016115Y004428D02*
X016729Y004428D01*
X017036Y004121D01*
X017650Y004428D02*
X017957Y004428D01*
X017957Y003200D01*
X017650Y003200D02*
X018264Y003200D01*
X017957Y005042D02*
X017957Y005349D01*
X018264Y006200D02*
X017343Y006200D01*
X017343Y008042D01*
X017343Y007428D02*
X018264Y007428D01*
X018571Y007121D01*
X018571Y006507D01*
X018264Y006200D01*
X016729Y006200D02*
X015809Y006200D01*
X015502Y006507D01*
X015809Y006814D01*
X016729Y006814D01*
X016729Y007121D02*
X016729Y006200D01*
X016729Y007121D02*
X016422Y007428D01*
X015809Y007428D01*
X014888Y006200D02*
X013660Y006200D01*
X013660Y008042D01*
X013046Y007121D02*
X012739Y007428D01*
X011818Y007428D01*
X011818Y008042D02*
X011818Y006200D01*
X012739Y006200D01*
X013046Y006507D01*
X013046Y007121D01*
X011205Y007121D02*
X011205Y006200D01*
X010284Y006200D01*
X009977Y006507D01*
X010284Y006814D01*
X011205Y006814D01*
X011205Y007121D02*
X010898Y007428D01*
X010284Y007428D01*
X009363Y008042D02*
X008135Y008042D01*
X008135Y006200D01*
X008135Y007121D02*
X008749Y007121D01*
X008749Y004121D02*
X009670Y003200D01*
D12*
X014900Y010340D03*
X015900Y010340D03*
D13*
X015900Y013060D03*
X013900Y013060D03*
D14*
X011700Y015300D03*
X010500Y015300D03*
D15*
X010500Y010340D01*
X014900Y010340D01*
X015900Y010340D02*
X015900Y013060D01*
X013900Y013060D02*
X011700Y013060D01*
X011700Y015300D01*
M02*
