G75*
%MOIN*%
%OFA0B0*%
%FSLAX24Y24*%
%IPPOS*%
%LPD*%
%AMOC8*
5,1,8,0,0,1.08239X$1,22.5*
%
%ADD10C,0.0080*%
%ADD11C,0.0100*%
%ADD12C,0.0060*%
%ADD13C,0.0050*%
%ADD14R,0.1020X0.0320*%
%ADD15C,0.0020*%
D10*
X016400Y009590D02*
X016400Y011090D01*
D11*
X016357Y011144D01*
X016311Y011196D01*
X016262Y011245D01*
X016210Y011292D01*
X016156Y011335D01*
X016100Y011376D01*
X016041Y011413D01*
X015981Y011447D01*
X015918Y011477D01*
X015855Y011504D01*
X015789Y011528D01*
X015723Y011548D01*
X015655Y011564D01*
X015587Y011576D01*
X015518Y011584D01*
X015449Y011589D01*
X015379Y011590D01*
X015310Y011587D01*
X015241Y011580D01*
X015173Y011569D01*
X015105Y011555D01*
X015038Y011536D01*
X014972Y011514D01*
X014907Y011489D01*
X014844Y011460D01*
X014783Y011427D01*
X014724Y011391D01*
X014667Y011352D01*
X014611Y011310D01*
X014559Y011265D01*
X014509Y011217D01*
X014462Y011166D01*
X014417Y011112D01*
X014376Y011057D01*
X014338Y010999D01*
X014303Y010939D01*
X014271Y010877D01*
X014243Y010814D01*
X014219Y010749D01*
X014198Y010683D01*
X014181Y010615D01*
X014167Y010547D01*
X014158Y010478D01*
X014152Y010409D01*
X014150Y010340D01*
X014152Y010271D01*
X014158Y010202D01*
X014167Y010133D01*
X014181Y010065D01*
X014198Y009997D01*
X014219Y009931D01*
X014243Y009866D01*
X014271Y009803D01*
X014303Y009741D01*
X014338Y009681D01*
X014376Y009623D01*
X014417Y009568D01*
X014462Y009514D01*
X014509Y009463D01*
X014559Y009415D01*
X014611Y009370D01*
X014667Y009328D01*
X014724Y009289D01*
X014783Y009253D01*
X014844Y009220D01*
X014907Y009191D01*
X014972Y009166D01*
X015038Y009144D01*
X015105Y009125D01*
X015173Y009111D01*
X015241Y009100D01*
X015310Y009093D01*
X015379Y009090D01*
X015449Y009091D01*
X015518Y009096D01*
X015587Y009104D01*
X015655Y009116D01*
X015723Y009132D01*
X015789Y009152D01*
X015855Y009176D01*
X015918Y009203D01*
X015981Y009233D01*
X016041Y009267D01*
X016100Y009304D01*
X016156Y009345D01*
X016210Y009388D01*
X016262Y009435D01*
X016311Y009484D01*
X016357Y009536D01*
X016400Y009590D01*
D12*
X014400Y010340D02*
X014402Y010403D01*
X014408Y010465D01*
X014418Y010527D01*
X014431Y010589D01*
X014449Y010649D01*
X014470Y010708D01*
X014495Y010766D01*
X014524Y010822D01*
X014556Y010876D01*
X014591Y010928D01*
X014629Y010977D01*
X014671Y011025D01*
X014715Y011069D01*
X014763Y011111D01*
X014812Y011149D01*
X014864Y011184D01*
X014918Y011216D01*
X014974Y011245D01*
X015032Y011270D01*
X015091Y011291D01*
X015151Y011309D01*
X015213Y011322D01*
X015275Y011332D01*
X015337Y011338D01*
X015400Y011340D01*
X015463Y011338D01*
X015525Y011332D01*
X015587Y011322D01*
X015649Y011309D01*
X015709Y011291D01*
X015768Y011270D01*
X015826Y011245D01*
X015882Y011216D01*
X015936Y011184D01*
X015988Y011149D01*
X016037Y011111D01*
X016085Y011069D01*
X016129Y011025D01*
X016171Y010977D01*
X016209Y010928D01*
X016244Y010876D01*
X016276Y010822D01*
X016305Y010766D01*
X016330Y010708D01*
X016351Y010649D01*
X016369Y010589D01*
X016382Y010527D01*
X016392Y010465D01*
X016398Y010403D01*
X016400Y010340D01*
X016398Y010277D01*
X016392Y010215D01*
X016382Y010153D01*
X016369Y010091D01*
X016351Y010031D01*
X016330Y009972D01*
X016305Y009914D01*
X016276Y009858D01*
X016244Y009804D01*
X016209Y009752D01*
X016171Y009703D01*
X016129Y009655D01*
X016085Y009611D01*
X016037Y009569D01*
X015988Y009531D01*
X015936Y009496D01*
X015882Y009464D01*
X015826Y009435D01*
X015768Y009410D01*
X015709Y009389D01*
X015649Y009371D01*
X015587Y009358D01*
X015525Y009348D01*
X015463Y009342D01*
X015400Y009340D01*
X015337Y009342D01*
X015275Y009348D01*
X015213Y009358D01*
X015151Y009371D01*
X015091Y009389D01*
X015032Y009410D01*
X014974Y009435D01*
X014918Y009464D01*
X014864Y009496D01*
X014812Y009531D01*
X014763Y009569D01*
X014715Y009611D01*
X014671Y009655D01*
X014629Y009703D01*
X014591Y009752D01*
X014556Y009804D01*
X014524Y009858D01*
X014495Y009914D01*
X014470Y009972D01*
X014449Y010031D01*
X014431Y010091D01*
X014418Y010153D01*
X014408Y010215D01*
X014402Y010277D01*
X014400Y010340D01*
X015050Y013060D02*
X015052Y013118D01*
X015058Y013176D01*
X015068Y013233D01*
X015082Y013289D01*
X015099Y013345D01*
X015120Y013399D01*
X015145Y013451D01*
X015174Y013502D01*
X015206Y013550D01*
X015241Y013596D01*
X015279Y013640D01*
X015320Y013681D01*
X015364Y013719D01*
X015410Y013754D01*
X015458Y013786D01*
X015509Y013815D01*
X015561Y013840D01*
X015615Y013861D01*
X015671Y013878D01*
X015727Y013892D01*
X015784Y013902D01*
X015842Y013908D01*
X015900Y013910D01*
X015958Y013908D01*
X016016Y013902D01*
X016073Y013892D01*
X016129Y013878D01*
X016185Y013861D01*
X016239Y013840D01*
X016291Y013815D01*
X016342Y013786D01*
X016390Y013754D01*
X016436Y013719D01*
X016480Y013681D01*
X016521Y013640D01*
X016559Y013596D01*
X016594Y013550D01*
X016626Y013502D01*
X016655Y013451D01*
X016680Y013399D01*
X016701Y013345D01*
X016718Y013289D01*
X016732Y013233D01*
X016742Y013176D01*
X016748Y013118D01*
X016750Y013060D01*
X016748Y013002D01*
X016742Y012944D01*
X016732Y012887D01*
X016718Y012831D01*
X016701Y012775D01*
X016680Y012721D01*
X016655Y012669D01*
X016626Y012618D01*
X016594Y012570D01*
X016559Y012524D01*
X016521Y012480D01*
X016480Y012439D01*
X016436Y012401D01*
X016390Y012366D01*
X016342Y012334D01*
X016291Y012305D01*
X016239Y012280D01*
X016185Y012259D01*
X016129Y012242D01*
X016073Y012228D01*
X016016Y012218D01*
X015958Y012212D01*
X015900Y012210D01*
X015842Y012212D01*
X015784Y012218D01*
X015727Y012228D01*
X015671Y012242D01*
X015615Y012259D01*
X015561Y012280D01*
X015509Y012305D01*
X015458Y012334D01*
X015410Y012366D01*
X015364Y012401D01*
X015320Y012439D01*
X015279Y012480D01*
X015241Y012524D01*
X015206Y012570D01*
X015174Y012618D01*
X015145Y012669D01*
X015120Y012721D01*
X015099Y012775D01*
X015082Y012831D01*
X015068Y012887D01*
X015058Y012944D01*
X015052Y013002D01*
X015050Y013060D01*
X012000Y015000D02*
X011900Y015000D01*
X012000Y015000D02*
X012000Y015100D01*
X012000Y015500D02*
X012000Y015600D01*
X011900Y015600D01*
X011500Y015600D02*
X011400Y015600D01*
X011400Y015500D01*
X011400Y015100D02*
X011400Y015000D01*
X011500Y015000D01*
X010800Y015000D02*
X010700Y015000D01*
X010800Y015000D02*
X010800Y015100D01*
X010800Y015500D02*
X010800Y015600D01*
X010700Y015600D01*
X010300Y015600D02*
X010200Y015600D01*
X010200Y015500D01*
X010200Y015100D02*
X010200Y015000D01*
X010300Y015000D01*
X002276Y015500D02*
X002278Y015564D01*
X002284Y015627D01*
X002294Y015690D01*
X002308Y015752D01*
X002325Y015813D01*
X002347Y015873D01*
X002372Y015932D01*
X002400Y015989D01*
X002432Y016044D01*
X002468Y016097D01*
X002507Y016147D01*
X002548Y016195D01*
X002593Y016241D01*
X002640Y016283D01*
X002690Y016323D01*
X002743Y016359D01*
X002797Y016392D01*
X002854Y016422D01*
X002912Y016448D01*
X002971Y016470D01*
X003032Y016488D01*
X003094Y016503D01*
X003157Y016514D01*
X003220Y016521D01*
X003284Y016524D01*
X003348Y016523D01*
X003411Y016518D01*
X003474Y016509D01*
X003537Y016496D01*
X003598Y016480D01*
X003659Y016459D01*
X003717Y016435D01*
X003775Y016407D01*
X003830Y016376D01*
X003884Y016341D01*
X003935Y016303D01*
X003984Y016262D01*
X004030Y016218D01*
X004073Y016172D01*
X004113Y016122D01*
X004150Y016071D01*
X004184Y016017D01*
X004215Y015961D01*
X004241Y015903D01*
X004265Y015844D01*
X004284Y015783D01*
X004300Y015721D01*
X004312Y015659D01*
X004320Y015595D01*
X004324Y015532D01*
X004324Y015468D01*
X004320Y015405D01*
X004312Y015341D01*
X004300Y015279D01*
X004284Y015217D01*
X004265Y015156D01*
X004241Y015097D01*
X004215Y015039D01*
X004184Y014983D01*
X004150Y014929D01*
X004113Y014878D01*
X004073Y014828D01*
X004030Y014782D01*
X003984Y014738D01*
X003935Y014697D01*
X003884Y014659D01*
X003830Y014624D01*
X003775Y014593D01*
X003717Y014565D01*
X003659Y014541D01*
X003598Y014520D01*
X003537Y014504D01*
X003474Y014491D01*
X003411Y014482D01*
X003348Y014477D01*
X003284Y014476D01*
X003220Y014479D01*
X003157Y014486D01*
X003094Y014497D01*
X003032Y014512D01*
X002971Y014530D01*
X002912Y014552D01*
X002854Y014578D01*
X002797Y014608D01*
X002743Y014641D01*
X002690Y014677D01*
X002640Y014717D01*
X002593Y014759D01*
X002548Y014805D01*
X002507Y014853D01*
X002468Y014903D01*
X002432Y014956D01*
X002400Y015011D01*
X002372Y015068D01*
X002347Y015127D01*
X002325Y015187D01*
X002308Y015248D01*
X002294Y015310D01*
X002284Y015373D01*
X002278Y015436D01*
X002276Y015500D01*
X001530Y015500D02*
X001532Y015584D01*
X001538Y015667D01*
X001548Y015750D01*
X001562Y015832D01*
X001579Y015914D01*
X001601Y015995D01*
X001626Y016075D01*
X001655Y016153D01*
X001688Y016230D01*
X001724Y016305D01*
X001764Y016379D01*
X001807Y016451D01*
X001853Y016520D01*
X001903Y016587D01*
X001956Y016652D01*
X002012Y016714D01*
X002071Y016774D01*
X002132Y016830D01*
X002196Y016884D01*
X002263Y016934D01*
X002332Y016982D01*
X002403Y017026D01*
X002476Y017067D01*
X002551Y017104D01*
X002627Y017137D01*
X002706Y017167D01*
X002785Y017193D01*
X002865Y017216D01*
X002947Y017234D01*
X003029Y017249D01*
X003112Y017260D01*
X003196Y017267D01*
X003279Y017270D01*
X003363Y017269D01*
X003446Y017264D01*
X003529Y017255D01*
X003612Y017242D01*
X003694Y017226D01*
X003775Y017205D01*
X003855Y017181D01*
X003934Y017153D01*
X004011Y017121D01*
X004087Y017086D01*
X004161Y017047D01*
X004233Y017004D01*
X004303Y016959D01*
X004371Y016910D01*
X004436Y016857D01*
X004499Y016802D01*
X004559Y016744D01*
X004616Y016683D01*
X004671Y016620D01*
X004722Y016554D01*
X004770Y016486D01*
X004815Y016415D01*
X004857Y016342D01*
X004895Y016268D01*
X004929Y016192D01*
X004960Y016114D01*
X004987Y016035D01*
X005011Y015955D01*
X005030Y015873D01*
X005046Y015791D01*
X005058Y015709D01*
X005066Y015625D01*
X005070Y015542D01*
X005070Y015458D01*
X005066Y015375D01*
X005058Y015291D01*
X005046Y015209D01*
X005030Y015127D01*
X005011Y015045D01*
X004987Y014965D01*
X004960Y014886D01*
X004929Y014808D01*
X004895Y014732D01*
X004857Y014658D01*
X004815Y014585D01*
X004770Y014514D01*
X004722Y014446D01*
X004671Y014380D01*
X004616Y014317D01*
X004559Y014256D01*
X004499Y014198D01*
X004436Y014143D01*
X004371Y014090D01*
X004303Y014041D01*
X004233Y013996D01*
X004161Y013953D01*
X004087Y013914D01*
X004011Y013879D01*
X003934Y013847D01*
X003855Y013819D01*
X003775Y013795D01*
X003694Y013774D01*
X003612Y013758D01*
X003529Y013745D01*
X003446Y013736D01*
X003363Y013731D01*
X003279Y013730D01*
X003196Y013733D01*
X003112Y013740D01*
X003029Y013751D01*
X002947Y013766D01*
X002865Y013784D01*
X002785Y013807D01*
X002706Y013833D01*
X002627Y013863D01*
X002551Y013896D01*
X002476Y013933D01*
X002403Y013974D01*
X002332Y014018D01*
X002263Y014066D01*
X002196Y014116D01*
X002132Y014170D01*
X002071Y014226D01*
X002012Y014286D01*
X001956Y014348D01*
X001903Y014413D01*
X001853Y014480D01*
X001807Y014549D01*
X001764Y014621D01*
X001724Y014695D01*
X001688Y014770D01*
X001655Y014847D01*
X001626Y014925D01*
X001601Y015005D01*
X001579Y015086D01*
X001562Y015168D01*
X001548Y015250D01*
X001538Y015333D01*
X001532Y015416D01*
X001530Y015500D01*
X002356Y003620D02*
X002358Y003684D01*
X002364Y003747D01*
X002374Y003810D01*
X002388Y003872D01*
X002405Y003933D01*
X002427Y003993D01*
X002452Y004052D01*
X002480Y004109D01*
X002512Y004164D01*
X002548Y004217D01*
X002587Y004267D01*
X002628Y004315D01*
X002673Y004361D01*
X002720Y004403D01*
X002770Y004443D01*
X002823Y004479D01*
X002877Y004512D01*
X002934Y004542D01*
X002992Y004568D01*
X003051Y004590D01*
X003112Y004608D01*
X003174Y004623D01*
X003237Y004634D01*
X003300Y004641D01*
X003364Y004644D01*
X003428Y004643D01*
X003491Y004638D01*
X003554Y004629D01*
X003617Y004616D01*
X003678Y004600D01*
X003739Y004579D01*
X003797Y004555D01*
X003855Y004527D01*
X003910Y004496D01*
X003964Y004461D01*
X004015Y004423D01*
X004064Y004382D01*
X004110Y004338D01*
X004153Y004292D01*
X004193Y004242D01*
X004230Y004191D01*
X004264Y004137D01*
X004295Y004081D01*
X004321Y004023D01*
X004345Y003964D01*
X004364Y003903D01*
X004380Y003841D01*
X004392Y003779D01*
X004400Y003715D01*
X004404Y003652D01*
X004404Y003588D01*
X004400Y003525D01*
X004392Y003461D01*
X004380Y003399D01*
X004364Y003337D01*
X004345Y003276D01*
X004321Y003217D01*
X004295Y003159D01*
X004264Y003103D01*
X004230Y003049D01*
X004193Y002998D01*
X004153Y002948D01*
X004110Y002902D01*
X004064Y002858D01*
X004015Y002817D01*
X003964Y002779D01*
X003910Y002744D01*
X003855Y002713D01*
X003797Y002685D01*
X003739Y002661D01*
X003678Y002640D01*
X003617Y002624D01*
X003554Y002611D01*
X003491Y002602D01*
X003428Y002597D01*
X003364Y002596D01*
X003300Y002599D01*
X003237Y002606D01*
X003174Y002617D01*
X003112Y002632D01*
X003051Y002650D01*
X002992Y002672D01*
X002934Y002698D01*
X002877Y002728D01*
X002823Y002761D01*
X002770Y002797D01*
X002720Y002837D01*
X002673Y002879D01*
X002628Y002925D01*
X002587Y002973D01*
X002548Y003023D01*
X002512Y003076D01*
X002480Y003131D01*
X002452Y003188D01*
X002427Y003247D01*
X002405Y003307D01*
X002388Y003368D01*
X002374Y003430D01*
X002364Y003493D01*
X002358Y003556D01*
X002356Y003620D01*
X001610Y003620D02*
X001612Y003704D01*
X001618Y003787D01*
X001628Y003870D01*
X001642Y003952D01*
X001659Y004034D01*
X001681Y004115D01*
X001706Y004195D01*
X001735Y004273D01*
X001768Y004350D01*
X001804Y004425D01*
X001844Y004499D01*
X001887Y004571D01*
X001933Y004640D01*
X001983Y004707D01*
X002036Y004772D01*
X002092Y004834D01*
X002151Y004894D01*
X002212Y004950D01*
X002276Y005004D01*
X002343Y005054D01*
X002412Y005102D01*
X002483Y005146D01*
X002556Y005187D01*
X002631Y005224D01*
X002707Y005257D01*
X002786Y005287D01*
X002865Y005313D01*
X002945Y005336D01*
X003027Y005354D01*
X003109Y005369D01*
X003192Y005380D01*
X003276Y005387D01*
X003359Y005390D01*
X003443Y005389D01*
X003526Y005384D01*
X003609Y005375D01*
X003692Y005362D01*
X003774Y005346D01*
X003855Y005325D01*
X003935Y005301D01*
X004014Y005273D01*
X004091Y005241D01*
X004167Y005206D01*
X004241Y005167D01*
X004313Y005124D01*
X004383Y005079D01*
X004451Y005030D01*
X004516Y004977D01*
X004579Y004922D01*
X004639Y004864D01*
X004696Y004803D01*
X004751Y004740D01*
X004802Y004674D01*
X004850Y004606D01*
X004895Y004535D01*
X004937Y004462D01*
X004975Y004388D01*
X005009Y004312D01*
X005040Y004234D01*
X005067Y004155D01*
X005091Y004075D01*
X005110Y003993D01*
X005126Y003911D01*
X005138Y003829D01*
X005146Y003745D01*
X005150Y003662D01*
X005150Y003578D01*
X005146Y003495D01*
X005138Y003411D01*
X005126Y003329D01*
X005110Y003247D01*
X005091Y003165D01*
X005067Y003085D01*
X005040Y003006D01*
X005009Y002928D01*
X004975Y002852D01*
X004937Y002778D01*
X004895Y002705D01*
X004850Y002634D01*
X004802Y002566D01*
X004751Y002500D01*
X004696Y002437D01*
X004639Y002376D01*
X004579Y002318D01*
X004516Y002263D01*
X004451Y002210D01*
X004383Y002161D01*
X004313Y002116D01*
X004241Y002073D01*
X004167Y002034D01*
X004091Y001999D01*
X004014Y001967D01*
X003935Y001939D01*
X003855Y001915D01*
X003774Y001894D01*
X003692Y001878D01*
X003609Y001865D01*
X003526Y001856D01*
X003443Y001851D01*
X003359Y001850D01*
X003276Y001853D01*
X003192Y001860D01*
X003109Y001871D01*
X003027Y001886D01*
X002945Y001904D01*
X002865Y001927D01*
X002786Y001953D01*
X002707Y001983D01*
X002631Y002016D01*
X002556Y002053D01*
X002483Y002094D01*
X002412Y002138D01*
X002343Y002186D01*
X002276Y002236D01*
X002212Y002290D01*
X002151Y002346D01*
X002092Y002406D01*
X002036Y002468D01*
X001983Y002533D01*
X001933Y002600D01*
X001887Y002669D01*
X001844Y002741D01*
X001804Y002815D01*
X001768Y002890D01*
X001735Y002967D01*
X001706Y003045D01*
X001681Y003125D01*
X001659Y003206D01*
X001642Y003288D01*
X001628Y003370D01*
X001618Y003453D01*
X001612Y003536D01*
X001610Y003620D01*
X021596Y005380D02*
X021598Y005444D01*
X021604Y005507D01*
X021614Y005570D01*
X021628Y005632D01*
X021645Y005693D01*
X021667Y005753D01*
X021692Y005812D01*
X021720Y005869D01*
X021752Y005924D01*
X021788Y005977D01*
X021827Y006027D01*
X021868Y006075D01*
X021913Y006121D01*
X021960Y006163D01*
X022010Y006203D01*
X022063Y006239D01*
X022117Y006272D01*
X022174Y006302D01*
X022232Y006328D01*
X022291Y006350D01*
X022352Y006368D01*
X022414Y006383D01*
X022477Y006394D01*
X022540Y006401D01*
X022604Y006404D01*
X022668Y006403D01*
X022731Y006398D01*
X022794Y006389D01*
X022857Y006376D01*
X022918Y006360D01*
X022979Y006339D01*
X023037Y006315D01*
X023095Y006287D01*
X023150Y006256D01*
X023204Y006221D01*
X023255Y006183D01*
X023304Y006142D01*
X023350Y006098D01*
X023393Y006052D01*
X023433Y006002D01*
X023470Y005951D01*
X023504Y005897D01*
X023535Y005841D01*
X023561Y005783D01*
X023585Y005724D01*
X023604Y005663D01*
X023620Y005601D01*
X023632Y005539D01*
X023640Y005475D01*
X023644Y005412D01*
X023644Y005348D01*
X023640Y005285D01*
X023632Y005221D01*
X023620Y005159D01*
X023604Y005097D01*
X023585Y005036D01*
X023561Y004977D01*
X023535Y004919D01*
X023504Y004863D01*
X023470Y004809D01*
X023433Y004758D01*
X023393Y004708D01*
X023350Y004662D01*
X023304Y004618D01*
X023255Y004577D01*
X023204Y004539D01*
X023150Y004504D01*
X023095Y004473D01*
X023037Y004445D01*
X022979Y004421D01*
X022918Y004400D01*
X022857Y004384D01*
X022794Y004371D01*
X022731Y004362D01*
X022668Y004357D01*
X022604Y004356D01*
X022540Y004359D01*
X022477Y004366D01*
X022414Y004377D01*
X022352Y004392D01*
X022291Y004410D01*
X022232Y004432D01*
X022174Y004458D01*
X022117Y004488D01*
X022063Y004521D01*
X022010Y004557D01*
X021960Y004597D01*
X021913Y004639D01*
X021868Y004685D01*
X021827Y004733D01*
X021788Y004783D01*
X021752Y004836D01*
X021720Y004891D01*
X021692Y004948D01*
X021667Y005007D01*
X021645Y005067D01*
X021628Y005128D01*
X021614Y005190D01*
X021604Y005253D01*
X021598Y005316D01*
X021596Y005380D01*
X020850Y005380D02*
X020852Y005464D01*
X020858Y005547D01*
X020868Y005630D01*
X020882Y005712D01*
X020899Y005794D01*
X020921Y005875D01*
X020946Y005955D01*
X020975Y006033D01*
X021008Y006110D01*
X021044Y006185D01*
X021084Y006259D01*
X021127Y006331D01*
X021173Y006400D01*
X021223Y006467D01*
X021276Y006532D01*
X021332Y006594D01*
X021391Y006654D01*
X021452Y006710D01*
X021516Y006764D01*
X021583Y006814D01*
X021652Y006862D01*
X021723Y006906D01*
X021796Y006947D01*
X021871Y006984D01*
X021947Y007017D01*
X022026Y007047D01*
X022105Y007073D01*
X022185Y007096D01*
X022267Y007114D01*
X022349Y007129D01*
X022432Y007140D01*
X022516Y007147D01*
X022599Y007150D01*
X022683Y007149D01*
X022766Y007144D01*
X022849Y007135D01*
X022932Y007122D01*
X023014Y007106D01*
X023095Y007085D01*
X023175Y007061D01*
X023254Y007033D01*
X023331Y007001D01*
X023407Y006966D01*
X023481Y006927D01*
X023553Y006884D01*
X023623Y006839D01*
X023691Y006790D01*
X023756Y006737D01*
X023819Y006682D01*
X023879Y006624D01*
X023936Y006563D01*
X023991Y006500D01*
X024042Y006434D01*
X024090Y006366D01*
X024135Y006295D01*
X024177Y006222D01*
X024215Y006148D01*
X024249Y006072D01*
X024280Y005994D01*
X024307Y005915D01*
X024331Y005835D01*
X024350Y005753D01*
X024366Y005671D01*
X024378Y005589D01*
X024386Y005505D01*
X024390Y005422D01*
X024390Y005338D01*
X024386Y005255D01*
X024378Y005171D01*
X024366Y005089D01*
X024350Y005007D01*
X024331Y004925D01*
X024307Y004845D01*
X024280Y004766D01*
X024249Y004688D01*
X024215Y004612D01*
X024177Y004538D01*
X024135Y004465D01*
X024090Y004394D01*
X024042Y004326D01*
X023991Y004260D01*
X023936Y004197D01*
X023879Y004136D01*
X023819Y004078D01*
X023756Y004023D01*
X023691Y003970D01*
X023623Y003921D01*
X023553Y003876D01*
X023481Y003833D01*
X023407Y003794D01*
X023331Y003759D01*
X023254Y003727D01*
X023175Y003699D01*
X023095Y003675D01*
X023014Y003654D01*
X022932Y003638D01*
X022849Y003625D01*
X022766Y003616D01*
X022683Y003611D01*
X022599Y003610D01*
X022516Y003613D01*
X022432Y003620D01*
X022349Y003631D01*
X022267Y003646D01*
X022185Y003664D01*
X022105Y003687D01*
X022026Y003713D01*
X021947Y003743D01*
X021871Y003776D01*
X021796Y003813D01*
X021723Y003854D01*
X021652Y003898D01*
X021583Y003946D01*
X021516Y003996D01*
X021452Y004050D01*
X021391Y004106D01*
X021332Y004166D01*
X021276Y004228D01*
X021223Y004293D01*
X021173Y004360D01*
X021127Y004429D01*
X021084Y004501D01*
X021044Y004575D01*
X021008Y004650D01*
X020975Y004727D01*
X020946Y004805D01*
X020921Y004885D01*
X020899Y004966D01*
X020882Y005048D01*
X020868Y005130D01*
X020858Y005213D01*
X020852Y005296D01*
X020850Y005380D01*
X021676Y014160D02*
X021678Y014224D01*
X021684Y014287D01*
X021694Y014350D01*
X021708Y014412D01*
X021725Y014473D01*
X021747Y014533D01*
X021772Y014592D01*
X021800Y014649D01*
X021832Y014704D01*
X021868Y014757D01*
X021907Y014807D01*
X021948Y014855D01*
X021993Y014901D01*
X022040Y014943D01*
X022090Y014983D01*
X022143Y015019D01*
X022197Y015052D01*
X022254Y015082D01*
X022312Y015108D01*
X022371Y015130D01*
X022432Y015148D01*
X022494Y015163D01*
X022557Y015174D01*
X022620Y015181D01*
X022684Y015184D01*
X022748Y015183D01*
X022811Y015178D01*
X022874Y015169D01*
X022937Y015156D01*
X022998Y015140D01*
X023059Y015119D01*
X023117Y015095D01*
X023175Y015067D01*
X023230Y015036D01*
X023284Y015001D01*
X023335Y014963D01*
X023384Y014922D01*
X023430Y014878D01*
X023473Y014832D01*
X023513Y014782D01*
X023550Y014731D01*
X023584Y014677D01*
X023615Y014621D01*
X023641Y014563D01*
X023665Y014504D01*
X023684Y014443D01*
X023700Y014381D01*
X023712Y014319D01*
X023720Y014255D01*
X023724Y014192D01*
X023724Y014128D01*
X023720Y014065D01*
X023712Y014001D01*
X023700Y013939D01*
X023684Y013877D01*
X023665Y013816D01*
X023641Y013757D01*
X023615Y013699D01*
X023584Y013643D01*
X023550Y013589D01*
X023513Y013538D01*
X023473Y013488D01*
X023430Y013442D01*
X023384Y013398D01*
X023335Y013357D01*
X023284Y013319D01*
X023230Y013284D01*
X023175Y013253D01*
X023117Y013225D01*
X023059Y013201D01*
X022998Y013180D01*
X022937Y013164D01*
X022874Y013151D01*
X022811Y013142D01*
X022748Y013137D01*
X022684Y013136D01*
X022620Y013139D01*
X022557Y013146D01*
X022494Y013157D01*
X022432Y013172D01*
X022371Y013190D01*
X022312Y013212D01*
X022254Y013238D01*
X022197Y013268D01*
X022143Y013301D01*
X022090Y013337D01*
X022040Y013377D01*
X021993Y013419D01*
X021948Y013465D01*
X021907Y013513D01*
X021868Y013563D01*
X021832Y013616D01*
X021800Y013671D01*
X021772Y013728D01*
X021747Y013787D01*
X021725Y013847D01*
X021708Y013908D01*
X021694Y013970D01*
X021684Y014033D01*
X021678Y014096D01*
X021676Y014160D01*
X020930Y014160D02*
X020932Y014244D01*
X020938Y014327D01*
X020948Y014410D01*
X020962Y014492D01*
X020979Y014574D01*
X021001Y014655D01*
X021026Y014735D01*
X021055Y014813D01*
X021088Y014890D01*
X021124Y014965D01*
X021164Y015039D01*
X021207Y015111D01*
X021253Y015180D01*
X021303Y015247D01*
X021356Y015312D01*
X021412Y015374D01*
X021471Y015434D01*
X021532Y015490D01*
X021596Y015544D01*
X021663Y015594D01*
X021732Y015642D01*
X021803Y015686D01*
X021876Y015727D01*
X021951Y015764D01*
X022027Y015797D01*
X022106Y015827D01*
X022185Y015853D01*
X022265Y015876D01*
X022347Y015894D01*
X022429Y015909D01*
X022512Y015920D01*
X022596Y015927D01*
X022679Y015930D01*
X022763Y015929D01*
X022846Y015924D01*
X022929Y015915D01*
X023012Y015902D01*
X023094Y015886D01*
X023175Y015865D01*
X023255Y015841D01*
X023334Y015813D01*
X023411Y015781D01*
X023487Y015746D01*
X023561Y015707D01*
X023633Y015664D01*
X023703Y015619D01*
X023771Y015570D01*
X023836Y015517D01*
X023899Y015462D01*
X023959Y015404D01*
X024016Y015343D01*
X024071Y015280D01*
X024122Y015214D01*
X024170Y015146D01*
X024215Y015075D01*
X024257Y015002D01*
X024295Y014928D01*
X024329Y014852D01*
X024360Y014774D01*
X024387Y014695D01*
X024411Y014615D01*
X024430Y014533D01*
X024446Y014451D01*
X024458Y014369D01*
X024466Y014285D01*
X024470Y014202D01*
X024470Y014118D01*
X024466Y014035D01*
X024458Y013951D01*
X024446Y013869D01*
X024430Y013787D01*
X024411Y013705D01*
X024387Y013625D01*
X024360Y013546D01*
X024329Y013468D01*
X024295Y013392D01*
X024257Y013318D01*
X024215Y013245D01*
X024170Y013174D01*
X024122Y013106D01*
X024071Y013040D01*
X024016Y012977D01*
X023959Y012916D01*
X023899Y012858D01*
X023836Y012803D01*
X023771Y012750D01*
X023703Y012701D01*
X023633Y012656D01*
X023561Y012613D01*
X023487Y012574D01*
X023411Y012539D01*
X023334Y012507D01*
X023255Y012479D01*
X023175Y012455D01*
X023094Y012434D01*
X023012Y012418D01*
X022929Y012405D01*
X022846Y012396D01*
X022763Y012391D01*
X022679Y012390D01*
X022596Y012393D01*
X022512Y012400D01*
X022429Y012411D01*
X022347Y012426D01*
X022265Y012444D01*
X022185Y012467D01*
X022106Y012493D01*
X022027Y012523D01*
X021951Y012556D01*
X021876Y012593D01*
X021803Y012634D01*
X021732Y012678D01*
X021663Y012726D01*
X021596Y012776D01*
X021532Y012830D01*
X021471Y012886D01*
X021412Y012946D01*
X021356Y013008D01*
X021303Y013073D01*
X021253Y013140D01*
X021207Y013209D01*
X021164Y013281D01*
X021124Y013355D01*
X021088Y013430D01*
X021055Y013507D01*
X021026Y013585D01*
X021001Y013665D01*
X020979Y013746D01*
X020962Y013828D01*
X020948Y013910D01*
X020938Y013993D01*
X020932Y014076D01*
X020930Y014160D01*
D13*
X018206Y011025D02*
X018206Y010575D01*
X018056Y010575D02*
X018356Y010575D01*
X018056Y010875D02*
X018206Y011025D01*
X017896Y010950D02*
X017821Y011025D01*
X017596Y011025D01*
X017596Y010575D01*
X017821Y010575D01*
X017896Y010650D01*
X017896Y010950D01*
X017436Y011025D02*
X017135Y011025D01*
X017135Y010575D01*
X017436Y010575D01*
X017286Y010800D02*
X017135Y010800D01*
X016975Y010575D02*
X016675Y010575D01*
X016675Y011025D01*
X014915Y012125D02*
X014615Y012125D01*
X014765Y012125D02*
X014765Y012575D01*
X014615Y012425D01*
X014454Y012350D02*
X014379Y012275D01*
X014154Y012275D01*
X014154Y012125D02*
X014154Y012575D01*
X014379Y012575D01*
X014454Y012500D01*
X014454Y012350D01*
X014304Y012275D02*
X014454Y012125D01*
X011775Y015725D02*
X011325Y015725D01*
X011325Y015950D01*
X011400Y016025D01*
X011550Y016025D01*
X011625Y015950D01*
X011625Y015725D01*
X011550Y016185D02*
X011550Y016486D01*
X011475Y016486D02*
X011775Y016486D01*
X011775Y016646D02*
X011775Y016871D01*
X011700Y016946D01*
X011400Y016946D01*
X011325Y016871D01*
X011325Y016646D01*
X011775Y016646D01*
X011475Y016486D02*
X011325Y016336D01*
X011475Y016185D01*
X011775Y016185D01*
X010575Y016185D02*
X010275Y016185D01*
X010125Y016336D01*
X010275Y016486D01*
X010575Y016486D01*
X010575Y016646D02*
X010575Y016871D01*
X010500Y016946D01*
X010200Y016946D01*
X010125Y016871D01*
X010125Y016646D01*
X010575Y016646D01*
X010350Y016486D02*
X010350Y016185D01*
X010350Y016025D02*
X010200Y016025D01*
X010125Y015950D01*
X010125Y015725D01*
X010575Y015725D01*
X010425Y015725D02*
X010425Y015950D01*
X010350Y016025D01*
X010200Y017106D02*
X010125Y017181D01*
X010125Y017331D01*
X010200Y017406D01*
X010275Y017406D01*
X010575Y017106D01*
X010575Y017406D01*
X011325Y017256D02*
X011475Y017106D01*
X011325Y017256D02*
X011775Y017256D01*
X011775Y017106D02*
X011775Y017406D01*
D14*
X014900Y013060D03*
D15*
X003380Y002770D02*
X003380Y001870D01*
X002530Y003620D02*
X001630Y003620D01*
X003380Y004470D02*
X003380Y005370D01*
X004230Y003620D02*
X005130Y003620D01*
X003300Y013750D02*
X003300Y014650D01*
X002450Y015500D02*
X001550Y015500D01*
X003300Y016350D02*
X003300Y017250D01*
X004150Y015500D02*
X005050Y015500D01*
X020950Y014160D02*
X021850Y014160D01*
X022700Y013310D02*
X022700Y012410D01*
X023550Y014160D02*
X024450Y014160D01*
X022700Y015010D02*
X022700Y015910D01*
X022620Y007130D02*
X022620Y006230D01*
X021770Y005380D02*
X020870Y005380D01*
X022620Y004530D02*
X022620Y003630D01*
X023470Y005380D02*
X024370Y005380D01*
M02*
